<svg id="Capa_1" data-name="Capa 1" xmlns="http://www.w3.org/2000/svg" viewBox="0 0 195.48 186.55">
  <defs>
    <style>
      .cls-1 {
        fill: #f5e35d;
      }

      .cls-2 {
        fill: #999a9c;
      }
    </style>
  </defs>
  <title>logo</title>
  <path class="cls-1" d="M167.14,167.13c20.31-19,30.59-41.69,30.59-66.87,0-48.72-33.64-86.56-80.5-94V22.94A78.33,78.33,0,0,1,179.6,99.71c0,20-8.66,39-25.18,55.23-8.39-7.31-15.7-13-23.28-18.41-20.31-14.35-43.32-21.39-69.31-21.39a120.91,120.91,0,0,0-38.45,6c-2.17-8.66-3-13.54-3-20.85C20.4,62.17,46.82,31,82.77,23.12V6.39C36.08,14,2.26,51.87,2.26,99.44c0,51.71,43.59,93.41,97.47,93.41,20.31,0,39.26-5.41,54.42-15.7,12.72,11.64,23,15.7,40.61,15.7V175.79a22.14,22.14,0,0,1-3.79.27C183.39,176.06,176.08,173.35,167.14,167.13Zm-66.6,9.48c-18.68,0-34.93-5.41-48.73-16-10-7.85-16.52-15.43-20.85-24.1,9.75-3.79,16.79-5.14,28.16-5.14,25.72,0,48.46,7.58,66.87,22.2,3.52,2.71,7,5.42,10.56,8.39a20.91,20.91,0,0,1,3.79,2.71C129.51,172.54,116,176.6,100.54,176.6Z" transform="translate(-2.26 -6.29)"/>
  <g>
    <path class="cls-2" d="M22.11,83.17H30c3.23,0,5.53.66,7.26,2.06a8,8,0,0,1,3,6.28c0,2.62-1,4.45-3.47,6.32a8.11,8.11,0,0,1,5.25,7.73,8.58,8.58,0,0,1-3.7,7.17c-2.06,1.41-4,1.83-8.34,1.83H21.86a71.78,71.78,0,0,1-1.45-15.8A93.63,93.63,0,0,1,22.11,83.17Zm7.07,13.54c2.81,0,4.17-.23,5.43-0.94a5.22,5.22,0,0,0,2.53-4.36,5.36,5.36,0,0,0-2.06-4.08c-1.27-1-3-1.36-5.62-1.36H25.25V96.71h3.94Zm0.47,15c2.86,0,4.54-.23,5.9-0.84a6.07,6.07,0,0,0,3.37-5.34,5.83,5.83,0,0,0-3.7-5.34c-1.5-.56-2.76-0.7-6.14-0.7H25.25v12.23h4.4Z" transform="translate(-2.26 -6.29)"/>
    <path class="cls-2" d="M47.56,83.17H50.7v32.41l-3.14.29V83.17Z" transform="translate(-2.26 -6.29)"/>
    <path class="cls-2" d="M62.13,86H54.92V83.17H77V86H65.27v29.21l-3.14,0V86Z" transform="translate(-2.26 -6.29)"/>
    <path class="cls-2" d="M76.42,83.17H93.62V86H79.56V97.27H93.15v2.81H79.56v11.67H93.62v2.81H76.42V83.17Z" transform="translate(-2.26 -6.29)"/>
    <path class="cls-2" d="M113.35,82.6a16.44,16.44,0,0,1,10.26,3.56,13.18,13.18,0,0,1,4.17,5h-3.51a13.25,13.25,0,0,0-10.92-5.76c-7.07,0-13.21,6.23-13.21,13.49s6.18,13.4,13.21,13.4a13.83,13.83,0,0,0,7.87-2.67,14.55,14.55,0,0,0,3.19-3.33h3.51a16.54,16.54,0,0,1-14.48,8.81A16.26,16.26,0,1,1,113.35,82.6Z" transform="translate(-2.26 -6.29)"/>
    <path class="cls-2" d="M132.51,83.17h3.14V97H152V83.17h3.14v31.39H152V99.8h-16.3v40l-3.14-2.3V83.17Z" transform="translate(-2.26 -6.29)"/>
    <path class="cls-2" d="M169.86,112.31a6.39,6.39,0,0,0,6.37-6.28,5.92,5.92,0,0,0-2.16-4.5c-1.12-1-2.3-1.45-4.87-2.11-3.28-.84-4.64-1.45-5.95-2.76A7.77,7.77,0,0,1,161,91c0-4.83,3.8-8.43,8.85-8.43s9.23,3.7,9.23,8.48h-3.8c-0.28-3.37-2.58-5.67-5.72-5.67a5.43,5.43,0,0,0-5.44,5.53,5,5,0,0,0,1.5,3.61,13,13,0,0,0,4.68,2c3.75,1.08,4.45,1.36,5.86,2.53a8.93,8.93,0,0,1,3.14,6.84,9.45,9.45,0,0,1-9.6,9.23,9.34,9.34,0,0,1-9.74-9.37h3.37a7.5,7.5,0,0,0,1.45,4.22A6.64,6.64,0,0,0,169.86,112.31Z" transform="translate(-2.26 -6.29)"/>
  </g>
</svg>
